<svg width="106" height="34" viewBox="0 0 106 34" fill="none" xmlns="http://www.w3.org/2000/svg">
<path d="M1.2915 22.3334V12.1251H21.7082V1.91675H1.2915L21.7082 22.3334H11.4998M1.2915 22.3334L11.4998 32.5417V22.3334M1.2915 22.3334H11.4998" stroke="black" stroke-width="2" stroke-linecap="round" stroke-linejoin="round"/>
<path d="M32.936 26C32.7227 26 32.5307 25.9253 32.36 25.776C32.2107 25.6053 32.136 25.4133 32.136 25.2V9.68C32.136 9.44533 32.2107 9.25333 32.36 9.104C32.5307 8.95467 32.7227 8.88 32.936 8.88H37.512C38.7707 8.88 39.8693 9.136 40.808 9.648C41.7467 10.1387 42.472 10.8107 42.984 11.664C43.5173 12.5173 43.784 13.4987 43.784 14.608C43.784 15.632 43.5493 16.5813 43.08 17.456C42.632 18.3307 41.9387 19.0347 41 19.568C40.0827 20.1013 38.92 20.368 37.512 20.368H33.736V25.2C33.736 25.4133 33.6613 25.6053 33.512 25.776C33.3627 25.9253 33.1707 26 32.936 26ZM33.736 10.48V18.768H37.512C39.0267 18.768 40.1787 18.3733 40.968 17.584C41.7787 16.7733 42.184 15.7813 42.184 14.608C42.184 13.3707 41.7467 12.3787 40.872 11.632C39.9973 10.864 38.8773 10.48 37.512 10.48H33.736ZM60.1605 26C59.9258 26 59.7232 25.904 59.5525 25.712L54.3365 19.632H50.0485V25.2C50.0485 25.4133 49.9738 25.6053 49.8245 25.776C49.6752 25.9253 49.4832 26 49.2485 26C49.0352 26 48.8432 25.9253 48.6725 25.776C48.5232 25.6053 48.4485 25.4133 48.4485 25.2V9.68C48.4485 9.44533 48.5232 9.25333 48.6725 9.104C48.8432 8.95467 49.0352 8.88 49.2485 8.88H53.9525C55.2112 8.88 56.2885 9.11467 57.1845 9.584C58.1018 10.0533 58.8058 10.6933 59.2965 11.504C59.8085 12.2933 60.0645 13.2107 60.0645 14.256C60.0645 15.408 59.7445 16.4533 59.1045 17.392C58.4858 18.3307 57.5152 18.9813 56.1925 19.344L60.7685 24.688C60.8965 24.816 60.9605 24.9867 60.9605 25.2C60.9605 25.392 60.8858 25.5733 60.7365 25.744C60.5872 25.9147 60.3952 26 60.1605 26ZM50.0485 10.48V18.032H53.9525C55.4245 18.032 56.5445 17.6693 57.3125 16.944C58.0805 16.1973 58.4645 15.3013 58.4645 14.256C58.4645 13.1253 58.0378 12.2187 57.1845 11.536C56.3525 10.832 55.2752 10.48 53.9525 10.48H50.0485ZM67.521 25.2C67.521 25.4133 67.4463 25.6053 67.297 25.776C67.1477 25.9253 66.9557 26 66.721 26C66.5077 26 66.3157 25.9253 66.145 25.776C65.9957 25.6053 65.921 25.4133 65.921 25.2V9.68C65.921 9.44533 65.9957 9.25333 66.145 9.104C66.3157 8.95467 66.5077 8.88 66.721 8.88C66.9557 8.88 67.1477 8.95467 67.297 9.104C67.4463 9.25333 67.521 9.44533 67.521 9.68V25.2ZM80.1885 26.32C79.8685 26.32 79.6018 26.1173 79.3885 25.712C79.1325 25.2213 78.7805 24.5067 78.3325 23.568C77.8845 22.608 77.3832 21.5413 76.8285 20.368C76.2952 19.1733 75.7512 17.968 75.1965 16.752C74.6632 15.536 74.1725 14.4053 73.7245 13.36C73.2978 12.2933 72.9672 11.4293 72.7325 10.768C72.6472 10.5333 72.5725 10.3093 72.5085 10.096C72.4445 9.88267 72.4125 9.73333 72.4125 9.648C72.4125 9.456 72.4765 9.27467 72.6045 9.104C72.7325 8.93333 72.9352 8.848 73.2125 8.848C73.3832 8.848 73.5432 8.90133 73.6925 9.008C73.8418 9.09333 73.9378 9.22133 73.9805 9.392C74.1938 10.0747 74.4925 10.9067 74.8765 11.888C75.2605 12.848 75.6872 13.872 76.1565 14.96C76.6258 16.048 77.1058 17.1467 77.5965 18.256C78.0872 19.344 78.5565 20.368 79.0045 21.328C79.4525 22.2667 79.8472 23.0773 80.1885 23.76C80.6152 22.8853 81.1165 21.84 81.6925 20.624C82.2685 19.3867 82.8445 18.096 83.4205 16.752C84.0178 15.408 84.5725 14.096 85.0845 12.816C85.6178 11.536 86.0445 10.4053 86.3645 9.424C86.4925 9.06133 86.7592 8.88 87.1645 8.88C87.3778 8.88 87.5592 8.96533 87.7085 9.136C87.8578 9.28533 87.9325 9.47733 87.9325 9.712C87.9325 9.776 87.9005 9.904 87.8365 10.096C87.7938 10.288 87.6978 10.5867 87.5485 10.992C87.2712 11.7173 86.9085 12.6027 86.4605 13.648C86.0338 14.6933 85.5538 15.8133 85.0205 17.008C84.5085 18.2027 83.9858 19.376 83.4525 20.528C82.9192 21.68 82.4285 22.7253 81.9805 23.664C81.5325 24.6027 81.1698 25.3493 80.8925 25.904C80.7645 26.1813 80.5298 26.32 80.1885 26.32ZM93.4673 26C93.2539 26 93.0619 25.9253 92.8913 25.776C92.7419 25.6053 92.6673 25.4133 92.6673 25.2V9.68C92.6673 9.46667 92.7313 9.28533 92.8593 9.136C93.0086 8.96533 93.1793 8.88 93.3713 8.88H102.331C102.566 8.88 102.758 8.95467 102.907 9.104C103.057 9.25333 103.131 9.44533 103.131 9.68C103.131 9.89333 103.057 10.0853 102.907 10.256C102.758 10.4053 102.566 10.48 102.331 10.48H94.2673V16.048H100.955C101.19 16.048 101.382 16.1227 101.531 16.272C101.681 16.4213 101.755 16.6133 101.755 16.848C101.755 17.0613 101.681 17.2533 101.531 17.424C101.382 17.5733 101.19 17.648 100.955 17.648H94.2673V24.4H102.395C102.63 24.4 102.822 24.4747 102.971 24.624C103.121 24.7733 103.195 24.9653 103.195 25.2C103.195 25.4133 103.121 25.6053 102.971 25.776C102.822 25.9253 102.63 26 102.395 26H93.4673Z" fill="black"/>
</svg>
